<svg id="svg" version="1.1" width="400" height="400" viewBox="0 0 400 400" xmlns="http://www.w3.org/2000/svg" xmlns:xlink="http://www.w3.org/1999/xlink"><g id="svgg"><path id="path0" d="M259.802 64.551 C 255.196 76.347,249.875 80.774,230.469 88.954 C 221.597 92.694,214.567 95.269,204.067 98.626 C 184.342 104.931,179.820 106.405,177.930 107.145 C 170.550 110.033,169.718 110.389,162.879 113.579 C 156.669 116.475,146.734 123.673,146.243 125.632 C 145.815 127.337,148.294 130.143,154.052 134.473 C 156.496 136.310,156.015 136.368,161.471 133.571 C 169.053 129.685,187.087 122.656,199.023 118.936 C 217.186 113.275,226.313 109.946,236.719 105.186 C 255.655 96.524,262.290 87.275,262.301 69.531 C 262.307 60.434,261.802 59.428,259.802 64.551 M140.048 135.924 C 138.603 138.261,137.756 146.631,137.984 156.322 C 138.583 181.846,149.727 191.576,194.930 206.048 C 210.706 211.099,218.710 214.067,234.618 220.765 C 236.577 221.590,238.280 222.266,238.402 222.266 C 238.524 222.266,240.780 223.525,243.416 225.065 C 255.745 232.266,261.057 239.430,258.519 245.435 C 252.498 259.685,238.364 267.297,189.063 282.846 C 150.780 294.919,136.405 307.393,136.342 328.594 C 136.327 333.614,136.882 337.189,137.625 336.859 C 137.879 336.746,138.915 334.940,139.928 332.845 C 145.307 321.722,155.414 314.616,177.953 306.113 C 189.223 301.861,193.188 300.518,203.516 297.451 C 217.605 293.268,238.078 284.856,244.922 280.439 C 258.657 271.574,263.549 260.213,262.716 239.106 C 262.069 222.686,259.678 217.242,249.909 209.945 C 246.602 207.475,235.061 201.172,233.844 201.172 C 233.719 201.172,232.689 200.749,231.555 200.231 C 224.470 197.000,214.945 193.501,203.300 189.854 C 190.925 185.977,185.517 184.027,172.461 178.734 C 155.433 171.829,146.745 165.555,141.283 156.216 C 139.738 153.575,140.621 150.328,143.776 147.052 C 145.162 145.612,145.201 144.889,144.003 142.808 C 143.498 141.930,142.591 139.937,141.988 138.379 C 140.925 135.633,140.534 135.137,140.048 135.924 " stroke="none" fill="#9acd3b" fill-rule="evenodd"></path><path id="path1" d="M187.500 60.499 C 187.500 60.740,187.017 60.938,186.426 60.938 C 185.835 60.938,183.945 61.208,182.227 61.538 C 180.508 61.869,177.783 62.315,176.172 62.529 C 171.799 63.111,165.813 64.538,161.208 66.096 C 159.961 66.518,158.677 66.763,158.356 66.639 C 157.982 66.496,157.871 66.576,158.049 66.863 C 158.237 67.167,158.056 67.240,157.483 67.090 C 157.020 66.969,156.641 67.048,156.641 67.266 C 156.641 67.484,156.368 67.557,156.034 67.429 C 155.701 67.301,155.527 67.356,155.647 67.551 C 155.936 68.017,153.275 68.889,152.682 68.522 C 152.416 68.358,152.327 68.407,152.470 68.639 C 152.775 69.132,148.547 70.808,147.913 70.446 C 147.664 70.304,147.592 70.332,147.752 70.508 C 148.018 70.802,147.176 71.456,145.703 72.101 C 141.468 73.954,133.683 78.109,131.764 79.541 C 131.080 80.051,130.348 80.469,130.137 80.469 C 129.925 80.469,129.694 80.608,129.622 80.778 C 129.371 81.376,126.572 82.865,126.169 82.616 C 125.945 82.477,125.810 82.597,125.869 82.881 C 125.928 83.166,125.676 83.375,125.308 83.347 C 124.941 83.318,124.677 83.494,124.722 83.737 C 124.768 83.981,124.499 84.156,124.125 84.126 C 123.752 84.097,123.530 84.209,123.633 84.375 C 123.933 84.861,122.739 85.642,122.185 85.323 C 121.907 85.162,121.800 85.165,121.946 85.328 C 122.358 85.786,119.921 87.974,119.275 87.726 C 118.964 87.607,118.805 87.663,118.921 87.851 C 119.213 88.324,115.725 91.124,115.227 90.816 C 115.005 90.679,114.873 90.741,114.932 90.955 C 115.066 91.439,107.772 98.068,107.375 97.823 C 107.216 97.724,106.958 97.849,106.803 98.101 C 106.626 98.386,106.689 98.454,106.971 98.279 C 107.219 98.126,107.422 98.118,107.422 98.261 C 107.422 98.624,105.379 100.193,104.892 100.204 C 104.672 100.209,104.537 100.487,104.592 100.821 C 104.647 101.156,104.207 101.876,103.615 102.422 C 101.281 104.573,97.263 109.321,94.146 113.614 C 93.181 114.942,92.191 115.951,91.944 115.856 C 91.682 115.755,91.564 115.956,91.662 116.338 C 91.754 116.698,91.339 117.541,90.739 118.212 C 89.651 119.430,89.322 119.943,86.727 124.472 C 85.971 125.793,84.702 127.830,83.908 128.999 C 83.114 130.167,82.411 131.372,82.345 131.675 C 82.280 131.978,82.124 132.314,81.999 132.422 C 81.690 132.687,79.687 136.981,79.688 137.378 C 79.688 137.553,78.880 139.365,77.893 141.406 C 75.416 146.527,75.135 147.187,74.485 149.414 C 74.172 150.488,73.456 152.597,72.895 154.100 C 72.334 155.603,71.875 157.121,71.875 157.473 C 71.875 157.826,71.612 158.617,71.291 159.233 C 70.971 159.848,70.707 160.670,70.706 161.058 C 70.704 161.447,70.544 161.666,70.349 161.546 C 70.154 161.426,70.079 161.648,70.181 162.040 C 70.284 162.431,70.016 164.233,69.586 166.044 C 69.156 167.855,68.682 170.391,68.532 171.680 C 68.249 174.129,68.211 174.368,67.609 177.539 C 66.318 184.346,66.029 206.939,67.160 212.695 C 68.005 216.997,69.114 225.508,68.879 225.888 C 68.742 226.111,68.806 226.184,69.021 226.050 C 69.480 225.767,70.540 229.785,70.166 230.390 C 70.029 230.611,70.123 230.861,70.375 230.945 C 70.627 231.029,70.848 231.730,70.866 232.502 C 70.884 233.275,71.001 233.844,71.127 233.767 C 71.493 233.543,73.488 240.617,73.194 241.094 C 73.040 241.342,73.103 241.418,73.341 241.271 C 73.804 240.985,75.513 245.580,75.158 246.154 C 75.039 246.347,75.149 246.455,75.401 246.396 C 75.921 246.275,77.039 249.546,76.677 250.131 C 76.548 250.340,76.626 250.398,76.851 250.258 C 77.230 250.024,78.906 252.995,78.906 253.902 C 78.906 254.119,79.111 254.297,79.362 254.297 C 79.613 254.297,79.709 254.405,79.576 254.538 C 79.261 254.854,82.492 261.272,84.454 264.228 C 85.299 265.500,86.347 267.239,86.782 268.092 C 87.734 269.958,91.412 275.197,94.925 279.688 C 95.345 280.225,96.851 282.151,98.273 283.969 C 99.694 285.787,101.131 287.474,101.465 287.719 C 101.837 287.990,101.950 288.361,101.757 288.673 C 101.560 288.992,101.595 289.088,101.851 288.930 C 102.076 288.791,103.327 289.819,104.632 291.214 C 105.937 292.609,107.104 293.750,107.225 293.750 C 107.599 293.750,109.961 296.589,109.961 297.038 C 109.961 297.271,110.159 297.461,110.400 297.461 C 110.642 297.461,112.878 299.087,115.370 301.074 C 117.862 303.062,120.018 304.687,120.162 304.687 C 120.306 304.687,120.970 305.199,121.638 305.825 C 125.080 309.050,125.781 309.672,125.781 309.503 C 125.781 309.401,126.704 309.837,127.832 310.471 C 128.960 311.105,130.762 312.101,131.836 312.684 C 132.910 313.267,134.229 314.137,134.766 314.617 C 136.222 315.920,136.772 315.529,138.452 312.001 C 140.202 308.326,142.560 304.297,142.962 304.297 C 143.111 304.297,143.921 303.702,144.762 302.976 C 151.998 296.717,152.252 296.544,159.807 292.701 C 169.243 287.902,177.960 284.354,187.109 281.590 C 188.506 281.168,190.000 280.661,190.430 280.464 C 190.859 280.266,192.344 279.822,193.728 279.475 C 196.431 278.799,208.838 274.732,212.695 273.258 C 213.984 272.765,216.797 271.698,218.945 270.885 C 221.094 270.073,224.258 268.800,225.977 268.056 C 227.695 267.312,230.963 265.946,233.238 265.019 C 237.541 263.267,240.304 261.783,243.458 259.529 C 244.479 258.800,245.477 258.203,245.676 258.203 C 245.874 258.203,246.361 257.791,246.757 257.288 C 247.152 256.785,248.194 255.920,249.072 255.366 C 250.964 254.172,253.195 251.656,254.325 249.444 C 254.772 248.568,255.492 247.281,255.924 246.584 C 257.473 244.087,257.897 241.439,256.984 239.963 C 255.946 238.283,255.963 238.279,253.352 241.016 C 252.123 242.305,251.052 243.359,250.973 243.359 C 250.894 243.359,249.193 244.469,247.192 245.825 C 238.318 251.839,223.204 258.070,202.402 264.292 C 165.974 275.187,148.095 285.698,141.396 300.161 L 139.932 303.320 139.595 300.977 C 135.911 275.372,150.246 262.456,199.023 247.432 C 214.369 242.705,228.872 237.152,239.414 231.967 L 245.821 228.816 243.711 227.527 C 242.551 226.819,241.426 226.087,241.211 225.902 C 240.208 225.039,237.815 223.879,234.961 222.873 C 231.301 221.583,228.557 220.385,227.734 219.717 C 227.412 219.455,226.094 218.871,224.805 218.418 C 219.708 216.628,216.957 215.626,216.211 215.286 C 213.247 213.939,200.913 209.659,195.117 207.967 C 192.234 207.125,192.498 207.210,191.797 206.901 C 191.475 206.759,189.189 205.947,186.719 205.097 C 181.205 203.201,176.302 201.438,175.000 200.884 C 174.463 200.656,172.090 199.716,169.727 198.796 C 153.780 192.589,143.628 184.228,139.091 173.567 C 134.881 163.672,135.218 139.183,139.655 132.645 C 140.610 131.237,140.629 131.088,140.243 128.008 C 139.794 124.428,139.784 118.941,140.219 115.430 C 140.503 113.141,140.511 113.128,140.568 114.879 C 140.667 117.970,142.085 122.739,143.228 123.828 L 144.254 124.805 146.144 122.889 C 147.184 121.835,148.459 120.693,148.978 120.350 C 152.231 118.201,154.241 116.711,155.046 115.855 C 155.878 114.969,163.476 110.938,164.314 110.938 C 164.504 110.938,165.311 110.589,166.106 110.163 C 170.878 107.605,177.928 105.067,197.070 99.018 C 199.434 98.272,203.740 96.857,206.641 95.875 C 209.541 94.893,213.584 93.554,215.625 92.899 C 217.666 92.245,220.226 91.300,221.314 90.800 C 222.402 90.299,224.248 89.523,225.415 89.075 C 226.583 88.626,227.891 88.094,228.320 87.891 C 228.750 87.688,230.068 87.152,231.250 86.700 C 233.192 85.958,241.367 81.947,245.627 79.647 C 247.153 78.822,250.691 75.682,252.461 73.582 C 253.320 72.561,252.544 71.484,250.949 71.484 C 250.427 71.484,250.000 71.351,250.000 71.189 C 250.000 71.026,249.284 70.670,248.410 70.397 C 247.535 70.124,246.464 69.569,246.029 69.164 C 245.251 68.439,245.201 68.449,242.930 69.780 C 235.239 74.288,218.238 81.239,206.671 84.605 C 192.967 88.593,174.234 95.503,165.304 99.865 C 156.514 104.158,148.912 110.394,144.819 116.669 C 142.389 120.396,142.387 120.396,141.604 116.666 C 141.021 113.887,140.987 112.943,141.371 110.063 C 143.771 92.026,159.318 81.512,203.320 68.170 C 210.127 66.106,221.167 62.163,220.258 62.121 C 220.121 62.115,218.626 61.858,216.938 61.550 C 211.491 60.559,197.454 59.952,192.402 60.490 C 189.631 60.785,188.370 60.782,188.008 60.482 C 187.642 60.179,187.500 60.184,187.500 60.499 M263.124 78.809 C 263.003 79.399,262.725 81.052,262.505 82.482 C 262.108 85.072,261.372 86.553,257.493 92.578 C 255.642 95.453,252.770 98.118,249.023 100.435 C 247.949 101.100,246.708 101.977,246.265 102.383 C 245.822 102.790,242.482 104.449,238.843 106.070 C 235.204 107.691,231.523 109.344,230.664 109.742 C 229.805 110.140,227.695 110.939,225.977 111.516 C 224.258 112.094,222.270 112.903,221.560 113.314 C 220.849 113.726,219.878 114.063,219.401 114.063 C 218.924 114.063,218.186 114.294,217.763 114.576 C 217.339 114.859,214.355 115.923,211.133 116.941 C 198.988 120.777,187.286 124.660,185.185 125.550 C 183.987 126.058,179.932 127.660,176.172 129.111 C 165.934 133.062,157.189 137.459,158.257 138.119 C 158.566 138.310,158.613 138.224,158.401 137.853 C 158.229 137.552,158.495 137.724,158.992 138.237 C 162.082 141.425,187.551 151.468,209.180 158.029 C 223.556 162.389,242.529 170.565,250.238 175.721 C 261.370 183.168,267.020 196.672,263.786 208.105 C 262.965 211.007,262.897 211.035,261.996 208.844 C 256.308 195.009,242.163 186.560,204.688 174.613 C 173.857 164.785,161.108 159.109,151.172 150.787 C 147.824 147.983,147.634 147.806,148.438 148.233 C 148.760 148.404,148.527 148.036,147.921 147.416 L 146.818 146.289 145.265 148.047 C 142.062 151.672,141.557 153.974,143.443 156.355 C 144.133 157.227,144.968 158.423,145.298 159.013 C 146.240 160.698,148.770 163.295,150.797 164.659 C 151.816 165.345,152.889 166.115,153.180 166.371 C 157.356 170.031,164.843 173.892,176.748 178.523 C 178.461 179.189,180.395 179.969,181.045 180.256 C 184.517 181.788,194.754 185.319,204.297 188.277 C 214.994 191.592,224.300 194.977,229.108 197.301 C 230.401 197.926,231.688 198.438,231.968 198.437 C 232.439 198.437,243.483 203.652,247.070 205.569 C 249.672 206.959,255.734 212.189,257.707 214.746 C 258.246 215.444,258.913 216.016,259.190 216.016 C 260.295 216.016,263.219 212.099,264.229 209.268 L 265.236 206.445 265.056 212.305 C 264.934 216.266,264.614 219.303,264.067 221.680 C 263.338 224.846,263.307 225.467,263.752 227.930 C 264.536 232.262,264.429 252.594,263.606 255.859 C 263.254 257.256,262.684 259.541,262.340 260.938 C 260.739 267.429,258.145 271.677,252.919 276.367 C 251.243 277.871,249.681 279.287,249.448 279.513 C 247.938 280.977,236.184 287.500,235.056 287.500 C 234.898 287.500,233.669 288.001,232.325 288.614 C 230.982 289.227,228.740 290.209,227.344 290.797 C 225.947 291.384,224.201 292.137,223.464 292.469 C 222.727 292.801,220.881 293.478,219.363 293.974 C 217.844 294.470,214.580 295.611,212.109 296.510 C 209.639 297.409,206.035 298.580,204.102 299.113 C 193.630 301.995,170.595 310.367,168.719 311.972 C 168.380 312.263,167.896 312.500,167.644 312.500 C 167.391 312.500,166.529 312.852,165.727 313.281 C 164.925 313.711,164.041 314.063,163.762 314.063 C 162.291 314.062,150.781 321.257,150.781 322.177 C 150.781 322.451,151.221 322.843,151.758 323.047 C 152.295 323.251,152.734 323.609,152.734 323.842 C 152.734 324.074,152.888 324.170,153.076 324.054 C 153.264 323.937,154.187 324.083,155.127 324.376 C 164.666 327.358,167.499 328.327,167.355 328.560 C 167.262 328.710,167.538 328.741,167.968 328.629 C 168.398 328.517,168.750 328.615,168.750 328.848 C 168.750 329.082,169.007 329.174,169.320 329.054 C 169.634 328.933,170.820 329.036,171.957 329.282 C 173.093 329.528,174.727 329.817,175.586 329.925 C 176.445 330.032,178.203 330.362,179.492 330.659 C 182.734 331.404,188.831 331.964,196.680 332.236 C 200.332 332.363,203.760 332.550,204.297 332.651 C 204.943 332.774,205.099 332.720,204.759 332.492 C 204.140 332.078,213.854 331.466,214.520 331.877 C 214.778 332.037,214.858 331.979,214.709 331.739 C 214.419 331.269,218.839 330.627,219.510 331.042 C 219.737 331.182,219.922 331.136,219.922 330.940 C 219.922 330.517,225.275 329.570,225.806 329.898 C 226.007 330.022,226.172 329.918,226.172 329.665 C 226.172 329.402,226.497 329.291,226.934 329.405 C 227.354 329.515,227.761 329.413,227.839 329.179 C 227.917 328.945,228.699 328.744,229.576 328.732 C 230.454 328.721,231.105 328.601,231.022 328.466 C 230.807 328.113,233.203 327.688,233.694 327.992 C 233.931 328.138,233.990 328.059,233.833 327.806 C 233.511 327.284,235.251 326.756,236.152 327.102 C 236.490 327.232,236.657 327.169,236.528 326.960 C 236.283 326.563,238.169 325.930,238.528 326.288 C 238.643 326.404,239.069 326.215,239.474 325.868 C 240.225 325.225,243.272 324.204,244.787 324.088 C 245.250 324.052,245.555 323.904,245.465 323.759 C 245.375 323.613,245.699 323.370,246.186 323.218 C 246.672 323.066,247.158 322.833,247.266 322.701 C 247.373 322.569,248.428 322.134,249.609 321.735 C 250.791 321.336,252.021 320.788,252.344 320.516 C 252.666 320.245,253.946 319.649,255.188 319.192 C 256.431 318.735,257.873 318.082,258.394 317.741 C 258.915 317.399,259.551 317.250,259.809 317.409 C 260.126 317.606,260.174 317.532,259.957 317.181 C 259.723 316.803,259.817 316.733,260.308 316.921 C 260.676 317.063,260.882 317.022,260.763 316.831 C 260.476 316.366,263.607 314.758,264.149 315.092 C 264.396 315.245,264.462 315.175,264.307 314.924 C 264.160 314.685,264.438 314.283,264.930 314.024 C 265.420 313.766,265.908 313.449,266.016 313.320 C 266.123 313.190,266.738 312.825,267.383 312.507 C 268.027 312.190,269.118 311.516,269.807 311.010 C 270.539 310.472,271.270 310.210,271.565 310.381 C 271.843 310.541,271.949 310.538,271.801 310.373 C 271.544 310.087,272.313 309.435,277.539 305.514 C 278.828 304.547,280.889 302.897,282.118 301.848 C 283.348 300.799,284.536 300.053,284.758 300.191 C 284.980 300.328,285.274 300.121,285.411 299.732 C 285.717 298.861,287.909 296.484,288.406 296.484 C 288.605 296.484,288.526 296.792,288.231 297.168 C 287.746 297.787,287.760 297.801,288.375 297.319 C 288.748 297.026,288.977 296.662,288.883 296.509 C 288.675 296.174,295.211 289.608,295.614 289.746 C 295.771 289.800,295.905 289.712,295.913 289.551 C 295.936 289.104,298.550 285.547,298.856 285.547 C 299.112 285.547,302.414 281.387,304.866 277.974 C 305.501 277.090,306.204 276.169,306.429 275.927 C 306.653 275.685,307.100 275.089,307.422 274.603 C 307.744 274.117,308.398 273.241,308.876 272.656 C 309.353 272.071,309.660 271.509,309.557 271.406 C 309.454 271.303,309.723 270.900,310.154 270.510 C 310.585 270.120,310.938 269.638,310.938 269.439 C 310.938 269.240,311.520 268.169,312.233 267.058 C 312.945 265.948,313.961 264.336,314.490 263.477 C 316.172 260.742,322.656 247.239,322.656 246.469 C 322.656 246.222,322.906 245.552,323.211 244.982 C 323.832 243.822,324.792 241.025,325.577 238.086 C 326.401 235.001,327.001 233.577,327.377 233.810 C 327.569 233.928,327.621 233.752,327.492 233.418 C 327.210 232.681,327.645 230.758,328.039 231.001 C 328.194 231.097,328.330 230.533,328.342 229.748 C 328.354 228.963,328.671 227.002,329.046 225.391 C 330.023 221.197,329.994 221.335,330.288 219.375 C 330.436 218.391,330.710 217.681,330.899 217.798 C 331.087 217.914,331.144 217.757,331.026 217.449 C 330.908 217.141,331.086 214.260,331.421 211.046 C 332.134 204.215,332.214 192.213,331.597 184.746 C 331.357 181.856,331.138 178.499,331.108 177.285 C 331.079 176.070,330.956 175.137,330.835 175.211 C 330.490 175.423,329.562 169.640,329.829 168.944 C 329.984 168.541,329.913 168.415,329.631 168.590 C 329.330 168.776,329.248 168.482,329.369 167.654 C 329.466 166.991,329.437 166.515,329.304 166.597 C 328.948 166.817,328.058 163.557,327.989 161.776 C 327.957 160.929,327.819 160.304,327.684 160.385 C 327.332 160.599,326.907 158.203,327.211 157.712 C 327.350 157.486,327.297 157.404,327.093 157.531 C 326.650 157.804,324.908 152.885,324.847 151.190 C 324.824 150.536,324.621 150.001,324.397 150.001 C 323.879 150.000,322.948 146.582,323.299 145.968 C 323.444 145.715,323.418 145.639,323.240 145.800 C 322.813 146.188,319.421 138.385,319.771 137.819 C 319.920 137.577,319.881 137.479,319.683 137.601 C 319.199 137.901,315.126 130.179,315.472 129.618 C 315.632 129.361,315.572 129.284,315.329 129.434 C 315.088 129.583,314.295 128.587,313.440 127.058 C 312.631 125.610,311.648 124.082,311.257 123.662 C 310.867 123.243,310.547 122.762,310.547 122.595 C 310.547 122.427,309.827 121.241,308.947 119.958 C 307.999 118.578,307.466 117.432,307.640 117.151 C 307.812 116.872,307.770 116.777,307.538 116.920 C 306.841 117.351,303.652 112.914,304.213 112.293 C 304.367 112.123,304.292 112.098,304.048 112.238 C 303.490 112.557,302.578 111.507,302.925 110.945 C 303.067 110.715,303.025 110.576,302.832 110.635 C 302.640 110.694,301.766 109.918,300.891 108.911 C 300.017 107.903,299.167 107.200,299.002 107.348 C 298.837 107.496,298.822 107.410,298.967 107.156 C 299.113 106.902,299.050 106.582,298.828 106.445 C 298.606 106.308,298.529 106.028,298.655 105.823 C 298.782 105.617,298.738 105.498,298.557 105.557 C 298.017 105.733,294.880 102.625,295.078 102.110 C 295.178 101.849,294.920 101.328,294.505 100.953 C 294.090 100.577,293.750 100.421,293.750 100.607 C 293.750 100.792,292.968 100.177,292.013 99.239 C 291.057 98.301,290.310 97.350,290.352 97.124 C 290.395 96.899,290.227 96.707,289.978 96.697 C 289.730 96.688,288.818 96.064,287.951 95.313 C 287.085 94.561,285.986 93.682,285.509 93.359 C 285.033 93.037,283.812 92.070,282.797 91.211 C 277.304 86.559,272.113 82.609,270.605 81.932 C 270.015 81.667,269.531 81.317,269.531 81.155 C 269.531 80.992,269.204 80.859,268.803 80.859 C 268.403 80.859,267.656 80.444,267.143 79.937 C 266.324 79.127,264.038 77.734,263.527 77.734 C 263.426 77.734,263.245 78.218,263.124 78.809 " stroke="none" fill="#045b93" fill-rule="evenodd"></path><path id="path2" d="M217.908 63.357 C 211.194 65.917,207.924 67.031,200.977 69.127 C 166.690 79.470,150.252 88.707,144.296 100.977 C 141.640 106.448,140.798 112.075,141.851 117.318 C 142.416 120.132,142.453 120.122,144.815 116.504 C 153.089 103.831,167.485 96.535,210.547 83.191 C 220.236 80.188,234.048 74.441,241.688 70.233 L 245.291 68.249 242.665 67.316 C 237.778 65.582,232.248 64.019,227.088 62.915 L 221.949 61.816 217.908 63.357 M140.188 118.359 C 140.106 120.186,140.168 123.525,140.327 125.781 C 140.485 128.037,140.660 130.586,140.717 131.445 C 140.774 132.305,141.016 133.184,141.255 133.398 C 141.494 133.613,142.329 135.459,143.111 137.500 C 143.893 139.541,144.972 141.976,145.509 142.911 C 146.045 143.846,146.484 144.869,146.484 145.185 C 146.484 146.262,152.969 152.259,156.964 154.877 C 165.140 160.234,179.009 166.180,195.703 171.484 C 241.464 186.025,253.714 192.632,261.102 206.756 C 262.820 210.040,262.914 210.144,263.287 209.164 C 266.373 201.047,262.962 187.524,256.100 180.678 C 248.817 173.411,229.343 164.275,206.575 157.443 C 190.974 152.761,170.435 144.857,161.879 140.243 C 160.180 139.327,157.474 137.883,155.867 137.036 C 150.761 134.342,145.319 129.098,144.509 126.089 C 144.284 125.253,143.838 124.469,143.518 124.346 C 142.562 123.979,141.438 121.318,140.871 118.079 L 140.338 115.039 140.188 118.359 M264.700 208.239 C 264.306 210.208,262.678 213.097,260.971 214.855 C 259.215 216.665,259.052 217.334,260.028 218.727 C 260.387 219.240,261.165 221.056,261.756 222.763 L 262.830 225.867 263.257 224.359 C 264.103 221.365,264.865 216.120,265.107 211.621 C 265.348 207.145,265.187 205.804,264.700 208.239 M244.727 229.361 C 239.127 233.130,214.614 243.012,200.851 247.050 C 172.910 255.247,152.330 265.380,145.585 274.261 C 140.738 280.643,138.418 290.942,139.742 300.195 L 140.078 302.539 141.475 299.562 C 147.872 285.926,164.363 276.015,198.242 265.444 C 214.060 260.509,218.278 259.109,224.414 256.756 C 239.097 251.128,253.683 242.551,255.553 238.447 C 256.150 237.138,253.004 233.308,248.479 229.833 C 246.506 228.319,246.312 228.294,244.727 229.361 M105.452 293.066 C 107.071 294.791,107.422 295.101,107.422 294.808 C 107.422 294.745,106.587 293.910,105.566 292.952 L 103.711 291.211 105.452 293.066 " stroke="none" fill="#6bbce3" fill-rule="evenodd"></path><path id="path3" d="M260.625 58.281 C 260.367 58.539,260.156 59.066,260.156 59.453 C 260.156 59.840,259.980 60.156,259.766 60.156 C 259.551 60.156,259.375 60.673,259.375 61.305 C 259.375 61.937,259.199 62.563,258.984 62.695 C 258.770 62.828,258.594 63.346,258.594 63.846 C 258.594 64.345,258.331 65.258,258.010 65.873 C 257.689 66.489,257.426 67.260,257.424 67.587 C 257.416 69.747,254.479 71.529,252.795 70.396 C 252.224 70.012,251.318 69.507,250.781 69.274 C 250.244 69.040,249.014 68.483,248.047 68.035 C 245.882 67.032,240.310 65.234,239.366 65.234 C 238.984 65.234,238.672 65.059,238.672 64.844 C 238.672 64.629,238.243 64.453,237.718 64.453 C 237.194 64.453,236.656 64.277,236.523 64.063 C 236.391 63.848,235.775 63.672,235.156 63.672 C 234.537 63.672,233.922 63.496,233.789 63.281 C 233.656 63.066,232.953 62.891,232.227 62.891 C 231.500 62.891,230.797 62.715,230.664 62.500 C 230.531 62.285,229.740 62.109,228.906 62.109 C 228.072 62.109,227.293 61.952,227.174 61.760 C 227.055 61.568,226.298 61.311,225.491 61.189 C 224.684 61.067,222.881 60.790,221.484 60.575 C 215.806 59.697,212.920 59.408,209.668 59.392 C 207.661 59.382,206.250 59.214,206.250 58.984 C 206.250 58.741,203.979 58.594,200.218 58.594 C 196.619 58.594,194.089 58.751,193.945 58.984 C 193.810 59.204,191.871 59.383,189.528 59.392 C 185.628 59.408,182.913 59.670,177.148 60.587 C 175.859 60.792,174.144 61.062,173.337 61.185 C 172.530 61.309,171.773 61.568,171.654 61.760 C 171.535 61.952,170.668 62.109,169.727 62.109 C 168.785 62.109,167.906 62.285,167.773 62.500 C 167.641 62.715,167.113 62.891,166.602 62.891 C 166.090 62.891,165.562 63.066,165.430 63.281 C 165.297 63.496,164.682 63.672,164.063 63.672 C 163.443 63.672,162.828 63.848,162.695 64.063 C 162.563 64.277,162.035 64.453,161.523 64.453 C 161.012 64.453,160.496 64.609,160.378 64.801 C 160.260 64.992,159.591 65.233,158.890 65.338 C 157.714 65.513,156.390 65.930,153.906 66.908 C 153.369 67.119,152.578 67.430,152.148 67.598 C 149.572 68.606,148.828 68.973,148.828 69.236 C 148.828 69.398,148.487 69.531,148.070 69.531 C 147.653 69.531,147.203 69.707,147.070 69.922 C 146.938 70.137,146.488 70.313,146.071 70.313 C 145.654 70.313,145.313 70.488,145.313 70.703 C 145.313 70.918,145.063 71.094,144.758 71.094 C 144.453 71.094,143.618 71.387,142.903 71.746 C 142.187 72.104,141.250 72.575,140.820 72.791 C 138.181 74.119,134.299 76.274,131.764 77.820 C 130.944 78.320,129.790 78.974,129.199 79.274 C 128.608 79.574,128.125 79.966,128.125 80.144 C 128.125 80.323,127.900 80.469,127.625 80.469 C 127.350 80.469,126.872 80.820,126.563 81.250 C 126.253 81.680,125.687 82.031,125.304 82.031 C 124.922 82.031,124.609 82.207,124.609 82.422 C 124.609 82.637,124.360 82.813,124.056 82.813 C 123.752 82.813,123.444 82.947,123.372 83.112 C 123.301 83.277,122.275 84.106,121.094 84.954 C 119.912 85.802,118.661 86.810,118.314 87.194 C 117.966 87.577,117.497 87.891,117.272 87.891 C 117.046 87.891,116.803 88.022,116.732 88.184 C 116.660 88.345,115.725 89.180,114.653 90.039 C 112.097 92.088,110.998 93.067,108.000 95.966 C 106.629 97.293,105.278 98.523,104.999 98.701 C 104.400 99.082,98.828 105.288,98.828 105.574 C 98.828 105.682,97.778 106.861,96.494 108.193 C 94.278 110.494,90.625 115.256,90.625 115.844 C 90.625 115.996,90.315 116.404,89.936 116.751 C 89.557 117.099,88.902 118.042,88.480 118.848 C 88.058 119.653,87.577 120.313,87.411 120.313 C 87.245 120.313,87.109 120.576,87.109 120.898 C 87.109 121.221,86.961 121.484,86.780 121.484 C 86.599 121.484,86.116 122.144,85.706 122.949 C 85.296 123.755,84.873 124.502,84.766 124.609 C 84.043 125.332,79.701 133.442,79.695 134.082 C 79.691 134.458,79.512 134.766,79.297 134.766 C 79.082 134.766,78.906 135.117,78.906 135.547 C 78.906 135.977,78.772 136.328,78.608 136.328 C 78.245 136.328,76.953 139.228,76.953 140.042 C 76.953 140.363,76.777 140.625,76.563 140.625 C 76.348 140.625,76.172 140.977,76.172 141.406 C 76.172 141.836,75.996 142.188,75.781 142.188 C 75.566 142.188,75.391 142.424,75.391 142.713 C 75.391 143.203,74.651 145.003,73.803 146.577 C 73.602 146.950,73.438 147.580,73.438 147.976 C 73.437 148.373,73.321 148.815,73.178 148.957 C 72.730 149.405,71.484 153.249,71.484 154.184 C 71.484 154.676,71.309 155.078,71.094 155.078 C 70.879 155.078,70.703 155.605,70.703 156.250 C 70.703 156.895,70.527 157.422,70.313 157.422 C 70.098 157.422,69.922 157.939,69.922 158.571 C 69.922 159.203,69.763 159.817,69.570 159.937 C 69.376 160.057,69.095 161.210,68.945 162.500 C 68.796 163.790,68.515 164.943,68.321 165.063 C 68.127 165.183,67.969 165.963,67.969 166.797 C 67.969 167.631,67.793 168.422,67.578 168.555 C 67.363 168.687,67.188 169.325,67.188 169.971 C 67.188 170.617,67.022 171.455,66.819 171.833 C 66.617 172.211,66.330 174.353,66.182 176.592 C 66.034 178.832,65.773 180.842,65.604 181.058 C 64.484 182.487,64.530 209.962,65.653 211.113 C 65.853 211.317,66.026 212.636,66.039 214.043 C 66.052 215.450,66.236 217.480,66.447 218.555 C 66.659 219.629,67.009 221.387,67.225 222.461 C 67.441 223.535,67.715 225.073,67.834 225.879 C 67.953 226.685,68.208 227.344,68.400 227.344 C 68.593 227.344,68.758 228.003,68.767 228.809 C 68.777 229.614,69.038 230.977,69.347 231.836 C 69.657 232.695,69.913 233.784,69.916 234.254 C 69.919 234.725,70.098 235.219,70.313 235.352 C 70.527 235.484,70.703 236.110,70.703 236.742 C 70.703 237.374,70.879 237.891,71.094 237.891 C 71.309 237.891,71.484 238.239,71.484 238.664 C 71.484 239.549,72.839 243.372,73.874 245.405 C 74.063 245.778,74.219 246.305,74.220 246.577 C 74.221 246.848,74.661 247.935,75.197 248.992 C 75.733 250.049,76.172 251.235,76.172 251.629 C 76.172 252.022,76.348 252.344,76.563 252.344 C 76.777 252.344,76.953 252.554,76.953 252.812 C 76.953 253.273,80.839 261.340,81.244 261.719 C 81.359 261.826,81.803 262.617,82.230 263.477 C 82.658 264.336,83.491 265.774,84.082 266.672 C 84.673 267.570,85.156 268.451,85.156 268.629 C 85.156 268.807,85.596 269.427,86.133 270.006 C 86.670 270.586,87.109 271.159,87.109 271.280 C 87.109 271.654,89.210 274.770,89.880 275.391 C 90.228 275.713,90.632 276.352,90.776 276.810 C 90.921 277.268,91.561 278.190,92.199 278.857 C 92.837 279.525,93.361 280.204,93.363 280.368 C 93.365 280.531,93.943 281.279,94.648 282.031 C 95.353 282.783,96.450 284.100,97.086 284.958 C 100.845 290.029,108.961 297.941,117.719 305.072 C 118.119 305.398,118.647 305.845,118.891 306.066 C 119.823 306.909,124.662 310.156,124.986 310.156 C 125.173 310.156,125.384 310.309,125.456 310.496 C 125.701 311.138,133.955 316.338,135.142 316.598 C 136.367 316.868,136.878 318.805,135.970 319.746 C 135.183 320.563,134.841 329.690,135.360 336.001 C 135.740 340.620,137.765 341.768,138.970 338.048 C 139.540 336.288,139.749 335.796,141.266 332.629 C 141.880 331.346,142.559 330.087,142.773 329.831 C 142.988 329.574,144.035 328.232,145.099 326.847 C 146.163 325.463,147.489 324.158,148.044 323.949 C 149.032 323.576,149.281 323.625,151.069 324.549 C 151.549 324.797,152.286 325.000,152.706 325.000 C 153.126 325.000,153.578 325.176,153.711 325.391 C 153.844 325.605,154.296 325.781,154.716 325.781 C 155.136 325.781,155.785 325.937,156.158 326.126 C 158.477 327.306,162.189 328.516,163.490 328.516 C 164.020 328.516,164.453 328.691,164.453 328.906 C 164.453 329.121,165.068 329.297,165.820 329.297 C 166.572 329.297,167.188 329.473,167.188 329.688 C 167.188 329.902,167.792 330.078,168.532 330.078 C 169.271 330.078,169.984 330.254,170.117 330.469 C 170.250 330.684,171.129 330.859,172.070 330.859 C 173.012 330.859,173.891 331.035,174.023 331.250 C 174.156 331.465,175.098 331.641,176.117 331.641 C 177.135 331.641,178.136 331.802,178.340 331.998 C 178.746 332.390,180.560 332.584,190.234 333.271 C 199.949 333.960,218.497 333.158,219.707 331.997 C 219.911 331.801,220.912 331.641,221.930 331.641 C 222.949 331.641,223.891 331.465,224.023 331.250 C 224.156 331.035,225.035 330.859,225.977 330.859 C 226.918 330.859,227.797 330.684,227.930 330.469 C 228.062 330.254,228.766 330.078,229.492 330.078 C 230.219 330.078,230.922 329.902,231.055 329.688 C 231.187 329.473,231.813 329.297,232.445 329.297 C 233.077 329.297,233.594 329.121,233.594 328.906 C 233.594 328.691,233.994 328.516,234.483 328.516 C 235.446 328.516,241.173 326.788,242.280 326.164 C 242.653 325.953,243.312 325.781,243.745 325.781 C 244.177 325.781,244.531 325.644,244.531 325.476 C 244.531 325.308,245.366 324.929,246.387 324.635 C 247.407 324.340,248.709 323.775,249.279 323.378 C 249.849 322.981,250.586 322.656,250.915 322.656 C 251.245 322.656,252.712 322.042,254.176 321.291 C 255.639 320.540,257.056 319.925,257.324 319.924 C 257.593 319.923,257.813 319.746,257.813 319.531 C 257.813 319.316,258.093 319.141,258.436 319.141 C 258.779 319.141,259.533 318.803,260.112 318.391 C 260.690 317.979,262.212 317.075,263.492 316.383 C 264.773 315.691,266.098 314.886,266.437 314.594 C 266.776 314.302,267.260 314.063,267.511 314.063 C 267.763 314.063,267.969 313.930,267.969 313.767 C 267.969 313.605,268.540 313.223,269.238 312.918 C 269.937 312.613,270.774 312.087,271.099 311.748 C 271.721 311.101,272.481 310.589,274.414 309.515 C 275.801 308.744,278.450 306.727,279.342 305.762 C 279.690 305.386,280.097 305.078,280.248 305.078 C 280.591 305.078,283.241 302.947,284.983 301.270 C 285.709 300.571,286.406 300.000,286.533 300.000 C 286.660 300.000,287.544 299.209,288.497 298.242 C 289.450 297.275,290.315 296.484,290.419 296.484 C 290.688 296.484,294.511 292.567,298.004 288.712 C 302.826 283.390,303.125 283.042,303.125 282.753 C 303.125 282.602,303.351 282.245,303.627 281.961 C 303.904 281.678,304.649 280.742,305.283 279.883 C 305.918 279.023,306.702 278.056,307.027 277.733 C 307.942 276.822,311.719 271.154,311.719 270.692 C 311.719 270.465,312.047 269.927,312.448 269.497 C 312.849 269.066,313.509 268.063,313.913 267.267 C 314.318 266.471,314.760 265.732,314.896 265.625 C 315.470 265.173,319.360 257.767,320.288 255.361 C 320.596 254.561,320.992 253.906,321.167 253.906 C 321.341 253.906,321.484 253.670,321.484 253.380 C 321.484 252.856,322.040 251.542,323.467 248.694 C 323.880 247.868,324.219 246.965,324.219 246.687 C 324.219 246.410,324.481 245.680,324.802 245.064 C 325.123 244.449,325.387 243.550,325.388 243.066 C 325.390 242.583,325.566 242.188,325.781 242.188 C 325.996 242.188,326.172 241.846,326.172 241.429 C 326.172 241.012,326.348 240.562,326.563 240.430 C 326.777 240.297,326.953 239.770,326.953 239.258 C 326.953 238.746,327.112 238.229,327.307 238.109 C 327.502 237.988,327.782 237.011,327.930 235.938 C 328.077 234.864,328.358 233.887,328.552 233.766 C 328.747 233.646,328.906 232.953,328.906 232.227 C 328.906 231.500,329.082 230.797,329.297 230.664 C 329.512 230.531,329.688 229.916,329.688 229.297 C 329.688 228.678,329.845 228.074,330.038 227.954 C 330.231 227.835,330.513 226.506,330.664 225.000 C 330.815 223.494,331.097 222.165,331.290 222.046 C 331.483 221.926,331.641 220.785,331.641 219.508 C 331.641 218.232,331.801 217.188,331.997 217.188 C 332.437 217.188,332.707 214.411,333.194 204.883 C 333.677 195.419,332.870 175.781,331.998 175.781 C 331.801 175.781,331.641 174.639,331.641 173.242 C 331.641 171.846,331.494 170.703,331.314 170.703 C 331.134 170.703,330.778 169.341,330.523 167.676 C 329.782 162.846,329.622 162.115,329.254 161.887 C 329.063 161.769,328.906 161.166,328.906 160.547 C 328.906 159.928,328.750 159.325,328.560 159.207 C 328.369 159.089,328.095 158.332,327.950 157.524 C 327.639 155.784,326.993 153.590,326.515 152.642 C 326.326 152.269,326.172 151.645,326.172 151.255 C 326.172 150.866,326.019 150.380,325.831 150.176 C 325.644 149.972,325.177 148.750,324.794 147.461 C 324.410 146.172,323.948 144.950,323.767 144.746 C 323.586 144.542,323.438 144.059,323.438 143.672 C 323.438 143.285,323.281 142.969,323.089 142.969 C 322.898 142.969,322.626 142.510,322.485 141.949 C 321.958 139.850,315.728 127.247,314.879 126.563 C 314.746 126.455,314.288 125.622,313.861 124.712 C 313.435 123.801,312.954 123.054,312.793 123.051 C 312.632 123.049,312.500 122.783,312.500 122.461 C 312.500 122.139,312.345 121.875,312.155 121.875 C 311.965 121.875,311.707 121.567,311.580 121.191 C 311.283 120.305,310.508 119.110,309.749 118.365 C 309.417 118.040,308.626 116.939,307.991 115.919 C 307.356 114.899,306.704 114.064,306.543 114.063 C 306.382 114.063,306.250 113.835,306.250 113.558 C 306.250 113.280,305.679 112.441,304.980 111.692 C 304.282 110.943,303.201 109.653,302.578 108.826 C 301.284 107.106,299.857 105.478,297.070 102.541 C 295.996 101.409,294.404 99.715,293.531 98.777 C 292.107 97.244,289.657 94.965,284.375 90.259 C 283.408 89.398,282.436 88.688,282.215 88.682 C 281.994 88.677,281.560 88.320,281.250 87.891 C 280.940 87.461,280.533 87.109,280.344 87.109 C 280.155 87.109,279.508 86.582,278.906 85.938 C 278.304 85.293,277.695 84.766,277.552 84.766 C 277.323 84.766,274.735 82.947,274.219 82.423 C 274.111 82.314,273.543 81.978,272.956 81.675 C 272.369 81.373,271.543 80.803,271.120 80.410 C 270.698 80.016,269.509 79.225,268.477 78.652 C 262.753 75.470,263.281 76.623,263.281 67.312 C 263.281 62.281,263.138 59.375,262.891 59.375 C 262.676 59.375,262.500 59.023,262.500 58.594 C 262.500 57.713,261.380 57.526,260.625 58.281 M262.671 69.668 L 262.770 76.249 266.728 78.652 C 330.406 117.306,351.733 200.148,314.622 264.692 C 304.469 282.351,288.856 299.023,271.680 310.547 C 235.752 334.651,190.259 339.614,151.563 323.649 L 148.242 322.279 145.506 325.162 C 142.314 328.525,140.307 331.739,138.595 336.229 C 137.919 338.001,137.322 339.406,137.268 339.351 C 136.141 338.224,135.671 327.191,136.531 322.070 C 136.856 320.137,137.163 318.230,137.214 317.832 C 137.282 317.294,136.214 316.449,133.008 314.505 C 43.108 259.997,43.214 131.058,133.203 77.859 C 169.263 56.542,214.833 53.802,251.512 70.748 C 253.318 71.583,254.995 72.266,255.237 72.266 C 256.208 72.266,259.627 65.262,260.964 60.535 L 261.459 58.789 262.016 60.938 C 262.365 62.283,262.610 65.545,262.671 69.668 " stroke="none" fill="#b0d6d3" fill-rule="evenodd"></path><path id="path4" d="M252.930 74.123 C 249.448 78.097,234.003 87.500,230.956 87.500 C 230.747 87.500,229.366 88.049,227.886 88.721 C 222.736 91.057,210.421 95.453,199.023 99.025 C 177.238 105.852,169.380 108.812,159.766 113.811 C 154.566 116.514,146.348 122.720,145.220 124.793 C 144.990 125.217,146.103 124.367,147.694 122.906 C 156.688 114.640,169.463 108.743,196.875 100.204 C 220.986 92.693,238.300 85.680,247.107 79.856 C 250.359 77.706,255.078 73.469,255.078 72.699 C 255.078 71.934,254.528 72.298,252.930 74.123 M262.284 78.027 C 259.695 93.100,251.766 100.200,226.172 110.364 C 219.119 113.165,214.366 114.787,196.680 120.431 C 180.297 125.659,156.022 135.840,157.180 136.998 C 157.303 137.120,157.640 137.024,157.929 136.784 C 159.085 135.825,167.379 131.968,174.023 129.300 C 186.904 124.129,190.571 122.844,209.180 116.986 C 212.402 115.971,215.830 114.831,216.797 114.453 C 217.764 114.075,222.070 112.400,226.367 110.732 C 250.644 101.305,259.436 93.934,262.232 80.664 C 262.548 79.160,262.933 77.622,263.086 77.246 C 263.248 76.849,263.191 76.563,262.950 76.563 C 262.722 76.563,262.422 77.222,262.284 78.027 M138.484 136.778 C 138.136 137.927,137.778 139.746,137.688 140.820 C 137.513 142.907,137.535 142.850,138.692 138.117 C 139.562 134.563,139.423 133.673,138.484 136.778 M137.208 144.336 C 137.212 145.195,137.292 145.501,137.386 145.015 C 137.479 144.529,137.476 143.826,137.378 143.452 C 137.280 143.079,137.204 143.477,137.208 144.336 M143.890 148.145 C 142.894 149.487,141.741 151.339,141.327 152.260 L 140.576 153.935 141.823 155.971 C 148.672 167.153,157.722 172.693,187.167 183.727 C 192.436 185.702,195.153 186.597,208.203 190.655 C 222.509 195.104,241.264 203.203,248.633 208.115 C 252.453 210.661,253.417 211.500,256.589 215.042 C 257.742 216.329,258.492 217.005,258.256 216.544 C 257.455 214.975,253.936 211.443,250.693 208.952 C 248.088 206.951,235.288 200.000,234.208 200.000 C 234.096 200.000,231.583 198.965,228.623 197.701 C 222.320 195.007,212.137 191.318,204.688 189.029 C 169.779 178.304,151.276 168.879,143.849 158.041 C 140.753 153.524,140.828 152.658,144.732 147.866 C 145.701 146.676,146.315 145.703,146.097 145.703 C 145.880 145.703,144.886 146.802,143.890 148.145 M136.788 153.239 C 136.598 173.488,142.292 183.695,159.102 193.236 C 166.022 197.164,182.306 203.401,199.609 208.751 C 202.725 209.714,208.789 211.836,213.086 213.467 C 217.383 215.097,222.546 217.037,224.559 217.777 C 226.572 218.518,228.418 219.282,228.661 219.477 C 228.903 219.671,230.918 220.558,233.138 221.448 C 237.775 223.307,240.189 224.490,243.713 226.631 C 245.089 227.466,246.403 228.087,246.632 228.011 C 249.216 227.149,216.942 213.621,199.414 208.217 C 149.150 192.723,138.096 183.153,137.136 154.297 L 136.856 145.898 136.788 153.239 M262.729 228.320 C 264.444 238.105,262.990 257.317,259.972 264.746 C 254.882 277.273,238.279 287.322,206.250 297.264 C 192.899 301.408,190.407 302.225,184.180 304.508 C 171.344 309.213,162.737 312.975,156.290 316.698 C 152.989 318.605,148.365 322.175,148.827 322.460 C 149.071 322.611,149.479 322.467,149.733 322.140 C 152.321 318.814,167.055 311.234,180.081 306.529 C 182.765 305.559,187.158 303.974,189.844 303.007 C 192.529 302.039,196.309 300.789,198.242 300.229 C 205.374 298.163,207.379 297.522,214.438 295.056 C 252.047 281.915,261.702 272.871,263.726 248.884 C 264.216 243.068,263.648 228.639,262.881 227.429 C 262.554 226.913,262.519 227.119,262.729 228.320 M256.716 238.184 C 256.793 238.345,257.189 239.129,257.595 239.927 C 259.459 243.585,254.559 252.192,247.656 257.385 C 240.891 262.475,236.470 264.671,220.508 270.869 C 217.930 271.870,215.021 273.009,214.044 273.399 C 213.067 273.790,207.794 275.556,202.325 277.324 C 196.857 279.092,189.658 281.421,186.328 282.500 C 179.935 284.571,171.745 287.605,168.282 289.185 C 167.143 289.705,165.332 290.527,164.258 291.012 C 151.859 296.610,143.066 303.900,139.148 311.828 C 136.901 316.375,136.853 316.516,137.471 316.722 C 137.702 316.799,137.891 316.572,137.891 316.218 C 137.891 313.672,141.991 307.292,146.236 303.234 C 155.018 294.837,168.059 288.711,195.508 280.085 C 226.849 270.237,243.834 262.523,251.238 254.773 C 257.771 247.935,259.764 243.279,257.805 239.438 C 257.178 238.209,256.174 237.053,256.716 238.184 " stroke="none" fill="#19614b" fill-rule="evenodd"></path><path id="path5" d="M108.573 96.387 L 107.227 97.852 108.691 96.505 C 109.497 95.765,110.156 95.106,110.156 95.041 C 110.156 94.742,109.826 95.023,108.573 96.387 M137.200 146.875 C 137.200 147.627,137.280 147.935,137.379 147.559 C 137.477 147.183,137.477 146.567,137.379 146.191 C 137.280 145.815,137.200 146.123,137.200 146.875 M332.513 191.016 C 332.513 191.768,332.593 192.075,332.691 191.699 C 332.789 191.323,332.789 190.708,332.691 190.332 C 332.593 189.956,332.513 190.264,332.513 191.016 M250.781 255.273 C 249.832 256.240,249.144 257.031,249.251 257.031 C 249.359 257.031,250.223 256.240,251.172 255.273 C 252.121 254.307,252.809 253.516,252.702 253.516 C 252.594 253.516,251.730 254.307,250.781 255.273 " stroke="none" fill="#579388" fill-rule="evenodd"></path><path id="path6" d="M261.233 59.570 C 260.572 61.782,260.494 62.307,260.912 61.719 C 261.282 61.198,261.371 61.198,261.713 61.719 C 262.183 62.435,262.203 61.334,261.749 59.766 C 261.488 58.867,261.447 58.851,261.233 59.570 M262.645 69.922 C 262.645 72.178,262.709 73.101,262.788 71.973 C 262.867 70.845,262.867 68.999,262.788 67.871 C 262.709 66.743,262.645 67.666,262.645 69.922 M256.689 70.514 C 250.942 80.254,233.939 88.742,197.266 100.180 C 176.242 106.737,165.697 110.946,156.671 116.385 C 150.709 119.978,144.289 125.538,144.921 126.561 C 145.108 126.864,145.166 127.264,145.051 127.451 C 144.260 128.730,155.422 137.574,156.760 136.728 C 162.867 132.870,184.200 124.100,197.070 120.157 C 244.366 105.666,259.362 96.212,261.955 79.249 C 262.099 78.308,262.356 77.266,262.526 76.932 C 262.697 76.598,262.690 76.089,262.512 75.801 C 262.302 75.462,261.956 76.365,261.531 78.361 C 258.759 91.371,252.775 97.841,236.719 105.186 C 226.313 109.946,217.186 113.275,199.023 118.936 C 187.087 122.656,169.053 129.685,161.471 133.571 C 156.015 136.368,156.496 136.310,154.052 134.473 C 143.723 126.707,143.767 125.765,154.811 118.324 C 159.810 114.956,165.412 112.115,173.047 109.076 C 180.156 106.246,178.788 106.707,204.067 98.626 C 235.039 88.725,251.851 80.012,256.626 71.387 C 257.970 68.960,258.020 68.258,256.689 70.514 M139.464 135.708 C 135.924 146.346,136.600 166.137,140.797 174.745 C 147.171 187.816,162.467 196.603,198.047 207.635 C 216.177 213.256,243.008 224.377,246.389 227.671 C 246.978 228.246,248.405 229.496,249.558 230.449 C 250.712 231.402,252.725 233.423,254.032 234.939 C 255.338 236.455,256.556 237.649,256.738 237.591 C 257.678 237.296,259.002 241.676,258.575 243.669 C 255.826 256.485,237.573 267.091,195.898 280.088 C 159.215 291.528,143.559 300.856,138.628 314.210 C 138.142 315.526,137.583 316.711,137.385 316.846 C 137.168 316.993,137.168 317.177,137.383 317.311 C 137.580 317.432,138.748 315.454,139.980 312.914 C 145.804 300.900,160.647 291.807,189.063 282.846 C 220.556 272.914,236.328 266.653,245.304 260.521 C 252.841 255.371,259.375 246.968,259.375 242.423 C 259.375 239.383,254.918 232.966,250.443 229.563 C 248.402 228.011,238.922 222.266,238.402 222.266 C 238.280 222.266,236.577 221.590,234.618 220.765 C 218.710 214.067,210.706 211.099,194.930 206.048 C 145.392 190.189,134.735 178.576,138.268 144.304 C 139.138 135.869,140.299 134.014,141.984 138.368 C 142.590 139.932,143.498 141.930,144.003 142.808 C 145.201 144.889,145.162 145.612,143.776 147.052 C 140.621 150.328,139.738 153.575,141.283 156.216 C 146.745 165.555,155.433 171.829,172.461 178.734 C 185.517 184.027,190.925 185.977,203.300 189.854 C 214.945 193.501,224.470 197.000,231.555 200.231 C 232.689 200.749,233.719 201.172,233.844 201.172 C 233.969 201.172,236.732 202.472,239.985 204.060 C 254.666 211.231,261.115 219.044,262.266 231.055 C 264.116 250.341,261.249 265.373,254.365 272.487 C 247.233 279.858,241.552 283.194,224.609 289.960 C 216.444 293.222,209.725 295.608,203.516 297.451 C 193.188 300.518,189.223 301.861,177.953 306.113 C 162.023 312.123,151.647 317.837,146.851 323.242 C 144.904 325.436,144.884 325.479,146.530 323.917 C 147.498 322.999,148.425 322.384,148.591 322.550 C 148.757 322.716,148.835 322.634,148.763 322.368 C 148.559 321.612,155.147 317.107,160.538 314.317 C 170.330 309.249,185.102 303.615,202.148 298.447 C 218.864 293.380,239.311 284.972,245.984 280.421 C 259.293 271.345,262.984 263.120,263.054 242.383 C 263.113 225.027,262.463 221.504,258.406 217.188 C 257.497 216.221,255.805 214.399,254.646 213.140 C 247.999 205.917,227.323 196.511,199.609 188.101 C 175.168 180.685,154.407 170.656,146.855 162.617 C 139.724 155.026,139.488 152.991,144.994 146.568 C 146.322 145.019,146.343 144.637,145.215 142.499 C 144.731 141.583,143.704 139.161,142.931 137.116 C 141.177 132.475,140.616 132.247,139.464 135.708 M136.085 328.906 C 136.085 331.377,136.149 332.388,136.226 331.152 C 136.304 329.917,136.304 327.896,136.226 326.660 C 136.149 325.425,136.085 326.436,136.085 328.906 M136.803 336.719 C 136.788 338.985,137.297 339.791,137.814 338.321 C 138.403 336.646,138.400 336.590,137.720 336.851 C 137.394 336.976,137.085 336.789,136.984 336.404 C 136.880 336.011,136.807 336.138,136.803 336.719 " stroke="none" fill="#77bb8a" fill-rule="evenodd"></path><path id="path7" d="M190.234 60.098 C 188.838 60.237,187.885 60.475,188.117 60.626 C 188.349 60.777,190.282 60.715,192.414 60.489 C 197.454 59.952,211.498 60.560,216.938 61.550 C 220.478 62.195,222.327 62.272,220.703 61.709 C 217.141 60.471,197.100 59.412,190.234 60.098 M180.664 61.146 C 173.719 62.164,161.568 65.102,158.135 66.593 C 156.123 67.467,157.488 67.288,160.636 66.265 C 165.907 64.553,171.789 63.104,175.195 62.680 C 176.270 62.546,178.994 62.109,181.250 61.707 C 183.506 61.305,185.879 60.906,186.523 60.820 C 187.299 60.717,187.101 60.658,185.938 60.647 C 184.971 60.638,182.598 60.863,180.664 61.146 M151.172 69.161 C 90.537 93.546,55.392 158.927,68.395 223.154 C 69.603 229.119,70.244 231.402,70.284 229.883 C 70.295 229.453,70.034 228.223,69.704 227.148 C 69.374 226.074,68.752 222.822,68.324 219.922 C 67.895 217.021,67.370 213.770,67.158 212.695 C 66.006 206.856,66.490 178.639,67.779 176.554 C 67.874 176.400,68.061 175.328,68.195 174.172 C 68.772 169.180,70.856 159.456,71.484 158.828 C 71.699 158.613,71.875 158.076,71.875 157.635 C 71.875 157.194,72.334 155.603,72.895 154.100 C 73.456 152.597,74.172 150.488,74.485 149.414 C 75.135 147.187,75.416 146.527,77.893 141.406 C 78.880 139.365,79.688 137.553,79.688 137.378 C 79.687 136.981,81.690 132.687,81.999 132.422 C 82.124 132.314,82.280 131.978,82.345 131.675 C 82.411 131.372,83.114 130.167,83.908 128.999 C 84.702 127.830,85.971 125.793,86.727 124.472 C 89.317 119.952,89.650 119.431,90.723 118.223 C 91.313 117.558,91.797 116.789,91.797 116.515 C 91.797 116.240,91.933 116.016,92.099 116.016 C 92.266 116.016,93.188 114.932,94.150 113.608 C 99.705 105.959,108.759 96.498,115.965 90.814 C 118.249 89.012,120.462 87.222,120.884 86.836 C 121.305 86.449,123.327 85.040,125.376 83.705 C 127.425 82.370,129.314 81.095,129.573 80.873 C 129.833 80.651,130.152 80.469,130.283 80.469 C 130.414 80.469,131.080 80.051,131.764 79.541 C 133.902 77.946,144.623 72.266,145.496 72.266 C 145.684 72.266,146.114 72.026,146.454 71.732 C 146.793 71.439,149.224 70.363,151.855 69.343 C 156.196 67.659,157.201 67.178,156.348 67.192 C 156.187 67.195,153.857 68.081,151.172 69.161 M245.968 69.100 C 246.437 69.540,247.535 70.124,248.410 70.397 C 249.284 70.670,250.000 71.026,250.000 71.189 C 250.000 71.351,250.427 71.484,250.949 71.484 C 252.544 71.484,253.320 72.561,252.461 73.582 C 250.691 75.682,247.153 78.822,245.627 79.647 C 241.367 81.947,233.192 85.958,231.250 86.700 C 230.068 87.152,228.750 87.688,228.320 87.891 C 227.891 88.094,226.583 88.626,225.415 89.075 C 224.248 89.523,222.402 90.299,221.314 90.800 C 220.226 91.300,217.666 92.245,215.625 92.899 C 213.584 93.554,209.541 94.893,206.641 95.875 C 203.740 96.857,199.434 98.272,197.070 99.018 C 177.928 105.067,170.878 107.605,166.106 110.163 C 165.311 110.589,164.504 110.938,164.314 110.938 C 163.476 110.938,155.878 114.969,155.046 115.855 C 154.248 116.704,152.864 117.734,149.056 120.313 C 147.159 121.597,144.531 124.390,144.531 125.121 C 144.531 125.734,144.719 125.618,145.426 124.569 C 146.941 122.320,154.936 116.322,159.766 113.811 C 169.380 108.812,177.238 105.852,199.023 99.025 C 210.421 95.453,222.736 91.057,227.886 88.721 C 229.366 88.049,230.728 87.500,230.914 87.500 C 233.368 87.500,247.583 79.325,251.348 75.749 C 255.239 72.052,255.347 72.221,247.070 69.047 L 245.117 68.298 245.968 69.100 M263.066 77.376 C 262.923 77.608,262.546 79.058,262.230 80.598 C 259.504 93.880,250.687 101.289,226.367 110.732 C 222.070 112.400,217.764 114.075,216.797 114.453 C 215.830 114.831,212.402 115.971,209.180 116.986 C 190.571 122.844,186.904 124.129,174.023 129.300 C 167.444 131.942,159.088 135.823,157.956 136.762 C 157.681 136.990,157.273 137.063,157.048 136.925 C 156.824 136.786,156.641 136.758,156.641 136.862 C 156.641 136.967,157.186 137.324,157.852 137.656 C 158.702 138.080,158.936 138.108,158.639 137.749 C 158.062 137.054,166.995 132.653,176.172 129.111 C 179.932 127.660,183.987 126.058,185.185 125.550 C 187.286 124.660,198.988 120.777,211.133 116.941 C 214.355 115.923,217.339 114.859,217.763 114.576 C 218.186 114.294,218.924 114.063,219.401 114.063 C 219.878 114.063,220.849 113.726,221.560 113.314 C 222.270 112.903,224.258 112.094,225.977 111.516 C 227.695 110.939,229.805 110.140,230.664 109.742 C 231.523 109.344,235.204 107.691,238.843 106.070 C 242.482 104.449,245.822 102.790,246.265 102.383 C 246.708 101.977,247.949 101.100,249.023 100.435 C 252.770 98.118,255.642 95.453,257.493 92.578 C 261.636 86.144,262.082 85.194,262.666 81.569 C 262.978 79.630,263.316 77.960,263.416 77.860 C 263.703 77.573,266.111 78.916,267.143 79.937 C 267.656 80.444,268.403 80.859,268.803 80.859 C 269.204 80.859,269.531 80.992,269.531 81.155 C 269.531 81.317,270.015 81.667,270.605 81.932 C 272.113 82.609,277.304 86.559,282.797 91.211 C 283.812 92.070,285.066 93.036,285.583 93.356 C 287.329 94.438,299.216 106.718,298.957 107.173 C 298.817 107.417,298.837 107.496,299.002 107.348 C 299.316 107.065,301.340 109.281,303.320 112.077 C 303.965 112.987,304.864 114.201,305.319 114.776 C 306.701 116.522,310.547 122.276,310.547 122.598 C 310.547 122.764,310.860 123.240,311.244 123.657 C 313.736 126.365,322.189 143.262,323.494 148.145 C 323.923 149.748,324.609 150.681,324.609 149.661 C 324.609 149.267,321.314 141.227,319.626 137.500 C 309.377 114.879,289.131 92.504,266.302 78.567 C 263.348 76.764,263.426 76.793,263.066 77.376 M139.468 132.866 C 135.195 139.808,134.972 163.888,139.091 173.567 C 141.979 180.353,146.872 185.901,154.492 191.032 C 159.297 194.267,163.192 196.253,169.727 198.796 C 172.090 199.716,174.463 200.656,175.000 200.884 C 176.302 201.438,181.205 203.201,186.719 205.097 C 189.189 205.947,191.475 206.759,191.797 206.901 C 192.498 207.210,192.234 207.125,195.117 207.967 C 200.913 209.659,213.247 213.939,216.211 215.286 C 216.957 215.626,219.708 216.628,224.805 218.418 C 226.094 218.871,227.412 219.455,227.734 219.717 C 228.557 220.385,231.301 221.583,234.961 222.873 C 237.788 223.869,240.504 225.175,241.016 225.783 C 241.526 226.391,245.439 228.539,245.809 228.415 C 246.854 228.067,239.268 223.885,233.203 221.465 C 230.947 220.566,228.903 219.671,228.661 219.477 C 228.418 219.282,226.572 218.518,224.559 217.777 C 222.546 217.037,217.383 215.097,213.086 213.467 C 208.789 211.836,202.725 209.714,199.609 208.751 C 190.558 205.953,185.357 204.150,173.438 199.684 C 154.881 192.730,143.655 183.948,139.529 173.157 C 135.625 162.948,135.741 141.529,139.741 133.879 C 140.878 131.704,140.667 130.919,139.468 132.866 M144.512 148.117 C 140.832 152.773,140.779 153.562,143.849 158.041 C 151.276 168.879,169.779 178.304,204.688 189.029 C 212.137 191.318,222.320 195.007,228.623 197.701 C 231.583 198.965,234.089 200.000,234.193 200.000 C 234.296 200.000,237.255 201.410,240.768 203.134 C 248.851 207.101,254.758 211.499,257.695 215.738 C 258.309 216.623,258.829 217.048,258.987 216.793 C 259.228 216.402,256.361 212.902,254.492 211.307 C 250.558 207.949,248.394 206.276,247.070 205.569 C 243.483 203.652,232.439 198.438,231.968 198.438 C 231.688 198.438,230.401 197.926,229.108 197.301 C 224.300 194.977,214.994 191.592,204.297 188.277 C 194.754 185.319,184.517 181.788,181.045 180.256 C 180.395 179.969,178.461 179.189,176.748 178.523 C 164.843 173.892,157.356 170.031,153.180 166.371 C 152.889 166.115,151.816 165.345,150.797 164.659 C 148.770 163.295,146.240 160.698,145.298 159.013 C 144.968 158.423,144.133 157.227,143.443 156.355 C 141.530 153.940,141.937 152.054,145.215 148.145 C 146.161 147.017,146.750 146.094,146.524 146.094 C 146.297 146.094,145.392 147.004,144.512 148.117 M324.826 151.563 C 324.964 152.314,325.576 154.364,326.187 156.117 C 326.797 157.870,327.566 160.506,327.895 161.976 C 328.225 163.446,328.754 165.791,329.070 167.188 C 329.387 168.584,329.904 171.045,330.219 172.656 C 330.533 174.268,330.806 175.127,330.825 174.565 C 330.883 172.837,328.989 164.187,327.115 157.629 C 325.372 151.527,324.297 148.677,324.826 151.563 M331.022 177.930 C 332.513 191.864,332.279 209.264,330.475 218.555 C 330.267 219.629,330.021 220.947,329.929 221.484 C 329.837 222.021,329.558 223.340,329.310 224.414 C 329.061 225.488,328.682 227.158,328.467 228.125 C 327.843 230.928,327.294 232.892,326.664 234.570 C 326.341 235.430,325.847 237.012,325.566 238.086 C 324.817 240.950,323.843 243.801,323.211 244.982 C 322.906 245.552,322.656 246.222,322.656 246.469 C 322.656 247.239,316.172 260.742,314.490 263.477 C 313.961 264.336,312.945 265.948,312.233 267.058 C 311.520 268.169,310.938 269.240,310.938 269.439 C 310.938 269.638,310.585 270.120,310.154 270.510 C 309.723 270.900,309.454 271.303,309.557 271.406 C 309.660 271.509,309.353 272.071,308.876 272.656 C 308.398 273.241,307.744 274.117,307.422 274.603 C 307.100 275.089,306.654 275.685,306.432 275.927 C 306.211 276.169,305.601 276.982,305.077 277.734 C 303.980 279.310,301.453 282.531,299.102 285.352 C 298.206 286.426,294.790 289.970,291.510 293.228 C 284.973 299.722,283.764 301.278,288.728 296.809 C 312.220 275.659,327.798 244.848,331.866 211.486 C 333.020 202.022,332.421 177.156,331.007 175.810 C 330.878 175.687,330.884 176.641,331.022 177.930 M262.799 226.214 C 262.693 226.513,262.763 227.065,262.956 227.440 C 263.669 228.826,264.191 243.369,263.726 248.884 C 261.702 272.871,252.047 281.915,214.438 295.056 C 207.379 297.522,205.374 298.163,198.242 300.229 C 196.309 300.789,192.529 302.039,189.844 303.007 C 187.158 303.974,182.765 305.559,180.081 306.529 C 167.070 311.229,149.609 320.276,149.609 322.317 C 149.609 322.709,152.380 323.922,152.653 323.649 C 152.757 323.545,152.379 323.283,151.812 323.067 C 151.245 322.852,150.781 322.451,150.781 322.177 C 150.781 321.257,162.291 314.063,163.762 314.063 C 164.041 314.063,164.925 313.711,165.727 313.281 C 166.529 312.852,167.391 312.500,167.644 312.500 C 167.896 312.500,168.380 312.263,168.719 311.972 C 170.595 310.367,193.630 301.995,204.102 299.113 C 206.035 298.580,209.639 297.409,212.109 296.510 C 214.580 295.611,217.844 294.470,219.363 293.974 C 220.881 293.478,222.727 292.801,223.464 292.469 C 224.201 292.137,225.947 291.384,227.344 290.797 C 228.740 290.209,230.982 289.227,232.325 288.614 C 233.669 288.001,234.898 287.500,235.056 287.500 C 236.184 287.500,247.938 280.977,249.448 279.513 C 249.681 279.287,251.243 277.871,252.919 276.367 C 258.145 271.677,260.739 267.428,262.340 260.938 C 262.684 259.541,263.229 257.344,263.550 256.055 C 265.031 250.113,264.322 221.936,262.799 226.214 M70.345 231.174 C 70.254 232.604,72.708 240.017,76.188 248.828 C 84.234 269.195,101.299 291.281,119.922 305.432 C 124.740 309.092,126.427 310.190,124.219 308.226 C 123.467 307.557,122.305 306.487,121.638 305.849 C 120.970 305.210,120.303 304.688,120.156 304.688 C 119.638 304.688,110.701 297.324,109.064 295.549 C 108.152 294.560,107.242 293.750,107.043 293.750 C 106.843 293.750,106.539 293.503,106.367 293.201 C 106.195 292.898,104.824 291.362,103.320 289.786 C 101.816 288.210,99.484 285.513,98.137 283.792 C 96.790 282.072,95.345 280.225,94.925 279.688 C 91.412 275.197,87.734 269.958,86.782 268.092 C 86.347 267.239,85.299 265.500,84.454 264.228 C 82.492 261.272,79.261 254.854,79.576 254.538 C 79.709 254.405,79.613 254.297,79.362 254.297 C 79.111 254.297,78.906 254.116,78.906 253.894 C 78.906 253.672,78.291 252.223,77.539 250.673 C 76.787 249.122,76.172 247.556,76.172 247.192 C 76.172 246.828,76.019 246.436,75.832 246.321 C 75.476 246.100,72.969 239.114,71.336 233.789 C 70.809 232.070,70.363 230.893,70.345 231.174 M256.157 238.114 C 256.018 238.253,256.329 239.008,256.848 239.792 C 257.916 241.405,257.573 243.926,255.924 246.584 C 255.492 247.281,254.772 248.568,254.325 249.444 C 253.195 251.656,250.964 254.172,249.072 255.366 C 248.194 255.920,247.152 256.785,246.757 257.288 C 246.361 257.791,245.874 258.203,245.676 258.203 C 245.477 258.203,244.479 258.800,243.458 259.529 C 240.304 261.783,237.541 263.267,233.238 265.019 C 230.963 265.946,227.695 267.312,225.977 268.056 C 224.258 268.800,221.094 270.073,218.945 270.885 C 216.797 271.698,213.984 272.765,212.695 273.258 C 208.838 274.732,196.431 278.799,193.728 279.475 C 192.344 279.822,190.859 280.266,190.430 280.464 C 190.000 280.661,188.506 281.168,187.109 281.590 C 177.960 284.354,169.243 287.902,159.807 292.701 C 152.252 296.544,151.998 296.717,144.762 302.976 C 143.921 303.702,143.111 304.297,142.962 304.297 C 142.560 304.297,140.202 308.326,138.452 312.001 C 136.772 315.529,136.222 315.920,134.766 314.617 C 134.229 314.137,132.910 313.267,131.836 312.684 C 130.762 312.101,128.960 311.105,127.832 310.471 C 125.117 308.944,125.221 309.359,128.027 311.251 C 131.167 313.368,137.120 316.837,137.025 316.495 C 136.769 315.574,141.433 307.414,143.457 305.242 C 148.296 300.047,156.169 294.677,164.453 290.922 C 165.635 290.386,167.456 289.560,168.500 289.085 C 171.838 287.568,180.087 284.521,186.328 282.500 C 189.658 281.421,196.857 279.092,202.325 277.324 C 207.794 275.556,213.067 273.790,214.044 273.399 C 215.021 273.009,217.930 271.870,220.508 270.869 C 236.470 264.671,240.891 262.475,247.656 257.385 C 253.150 253.252,258.211 245.693,258.201 241.637 C 258.199 240.657,256.515 237.756,256.157 238.114 M282.346 301.680 C 277.405 305.833,270.082 311.122,267.365 312.499 C 266.730 312.821,266.123 313.182,266.016 313.300 C 265.752 313.592,261.752 316.016,261.535 316.016 C 261.440 316.016,260.443 316.558,259.320 317.220 C 258.196 317.883,256.299 318.784,255.103 319.224 C 253.908 319.663,252.666 320.245,252.344 320.516 C 252.021 320.788,250.791 321.336,249.609 321.735 C 248.428 322.134,247.373 322.561,247.266 322.684 C 246.929 323.068,241.823 324.999,241.109 325.012 C 240.504 325.023,238.565 326.172,239.152 326.172 C 245.674 326.172,277.678 308.020,284.533 300.433 C 285.820 299.008,284.902 299.532,282.346 301.680 M153.135 323.939 C 153.732 324.622,167.289 328.970,168.525 328.874 C 169.043 328.833,159.596 325.634,156.641 324.848 C 155.459 324.534,154.141 324.148,153.711 323.991 C 153.281 323.833,153.022 323.809,153.135 323.939 M236.523 326.555 C 235.837 326.845,233.712 327.480,228.906 328.832 C 228.154 329.044,227.833 329.235,228.191 329.257 C 228.870 329.298,238.301 326.673,238.620 326.354 C 238.922 326.052,237.360 326.202,236.523 326.555 M170.898 329.512 C 172.953 330.075,179.942 331.304,185.547 332.088 C 192.950 333.123,218.322 332.300,219.513 330.986 C 219.630 330.856,218.760 330.869,217.578 331.013 C 216.396 331.158,213.848 331.471,211.914 331.709 C 203.970 332.686,185.695 332.093,179.492 330.659 C 178.203 330.360,176.357 330.016,175.391 329.894 C 174.424 329.771,172.930 329.503,172.070 329.298 C 169.673 328.726,168.687 328.905,170.898 329.512 M222.070 330.266 C 220.631 330.569,220.179 330.764,220.898 330.772 C 221.543 330.779,222.949 330.558,224.023 330.282 C 226.542 329.635,225.125 329.623,222.070 330.266 " stroke="none" fill="#125866" fill-rule="evenodd"></path><path id="path8" d="M141.127 113.086 C 141.130 114.160,141.206 114.553,141.296 113.959 C 141.386 113.366,141.383 112.487,141.291 112.006 C 141.198 111.526,141.124 112.012,141.127 113.086 M139.961 119.141 C 139.961 120.322,140.034 120.806,140.124 120.215 C 140.213 119.624,140.213 118.657,140.124 118.066 C 140.034 117.476,139.961 117.959,139.961 119.141 M139.965 124.023 C 139.967 125.313,140.040 125.793,140.127 125.091 C 140.214 124.389,140.212 123.334,140.123 122.747 C 140.034 122.160,139.963 122.734,139.965 124.023 M254.102 197.266 C 255.160 198.340,256.113 199.219,256.221 199.219 C 256.328 199.219,255.550 198.340,254.492 197.266 C 253.434 196.191,252.481 195.313,252.373 195.313 C 252.266 195.313,253.043 196.191,254.102 197.266 M264.934 214.453 C 264.934 215.205,265.015 215.513,265.113 215.137 C 265.211 214.761,265.211 214.146,265.113 213.770 C 265.015 213.394,264.934 213.701,264.934 214.453 M139.199 294.531 C 139.199 296.357,139.266 297.104,139.349 296.191 C 139.431 295.278,139.431 293.784,139.349 292.871 C 139.266 291.958,139.199 292.705,139.199 294.531 " stroke="none" fill="#398ebc" fill-rule="evenodd"></path></g></svg>