<svg role="img" aria-label="Synergy Advisors ribbon mark" viewBox="54 54 292 292" xmlns="http://www.w3.org/2000/svg">
  <circle cx="200" cy="200" r="134" fill="#1687C1" fill-opacity=".88"/>
  <path fill="#9ACD3B" fill-rule="evenodd" d="M259.802 64.551C255.196 76.347 249.875 80.774 230.469 88.954C221.597 92.694 214.567 95.269 204.067 98.626C184.342 104.931 179.82 106.405 177.93 107.145C170.55 110.033 169.718 110.389 162.879 113.579C156.669 116.475 146.734 123.673 146.243 125.632C145.815 127.337 148.294 130.143 154.052 134.473C156.496 136.31 156.015 136.368 161.471 133.571C169.053 129.685 187.087 122.656 199.023 118.936C217.186 113.275 226.313 109.946 236.719 105.186C255.655 96.524 262.29 87.275 262.301 69.531C262.307 60.434 261.802 59.428 259.802 64.551ZM140.048 135.924C138.603 138.261 137.756 146.631 137.984 156.322C138.583 181.846 149.727 191.576 194.93 206.048C210.706 211.099 218.71 214.067 234.618 220.765C236.577 221.59 238.28 222.266 238.402 222.266C238.524 222.266 240.78 223.525 243.416 225.065C255.745 232.266 261.057 239.43 258.519 245.435C252.498 259.685 238.364 267.297 189.063 282.846C150.78 294.919 136.405 307.393 136.342 328.594C136.327 333.614 136.882 337.189 137.625 336.859C137.879 336.746 138.915 334.94 139.928 332.845C145.307 321.722 155.414 314.616 177.953 306.113C189.223 301.861 193.188 300.518 203.516 297.451C217.605 293.268 238.078 284.856 244.922 280.439C258.657 271.574 263.549 260.213 262.716 239.106C262.069 222.686 259.678 217.242 249.909 209.945C246.602 207.475 235.061 201.172 233.844 201.172C233.719 201.172 232.689 200.749 231.555 200.231C224.47 197 214.945 193.501 203.3 189.854C190.925 185.977 185.517 184.027 172.461 178.734C155.433 171.829 146.745 165.555 141.283 156.216C139.738 153.575 140.621 150.328 143.776 147.052C145.162 145.612 145.201 144.889 144.003 142.808C143.498 141.93 142.591 139.937 141.988 138.379C140.925 135.633 140.534 135.137 140.048 135.924Z"/>
  <path fill="#FFFFFF" fill-rule="evenodd" d="M217.908 63.357C211.194 65.917 207.924 67.031 200.977 69.127C166.69 79.47 150.252 88.707 144.296 100.977C141.64 106.448 140.798 112.075 141.851 117.318C142.416 120.132 142.453 120.122 144.815 116.504C153.089 103.831 167.485 96.535 210.547 83.191C220.236 80.188 234.048 74.441 241.688 70.233L245.291 68.249L242.665 67.316C237.778 65.582 232.248 64.019 227.088 62.915L221.949 61.816L217.908 63.357ZM140.188 118.359C140.106 120.186 140.168 123.525 140.327 125.781C140.485 128.037 140.66 130.586 140.717 131.445C140.774 132.305 141.016 133.184 141.255 133.398C141.494 133.613 142.329 135.459 143.111 137.5C143.893 139.541 144.972 141.976 145.509 142.911C146.045 143.846 146.484 144.869 146.484 145.185C146.484 146.262 152.969 152.259 156.964 154.877C165.14 160.234 179.009 166.18 195.703 171.484C241.464 186.025 253.714 192.632 261.102 206.756C262.82 210.04 262.914 210.144 263.287 209.164C266.373 201.047 262.962 187.524 256.1 180.678C248.817 173.411 229.343 164.275 206.575 157.443C190.974 152.761 170.435 144.857 161.879 140.243C160.18 139.327 157.474 137.883 155.867 137.036C150.761 134.342 145.319 129.098 144.509 126.089C144.284 125.253 143.838 124.469 143.518 124.346C142.562 123.979 141.438 121.318 140.871 118.079L140.338 115.039L140.188 118.359ZM264.7 208.239C264.306 210.208 262.678 213.097 260.971 214.855C259.215 216.665 259.052 217.334 260.028 218.727C260.387 219.24 261.165 221.056 261.756 222.763L262.83 225.867L263.257 224.359C264.103 221.365 264.865 216.12 265.107 211.621C265.348 207.145 265.187 205.804 264.7 208.239ZM244.727 229.361C239.127 233.13 214.614 243.012 200.851 247.05C172.91 255.247 152.33 265.38 145.585 274.261C140.738 280.643 138.418 290.942 139.742 300.195L140.078 302.539L141.475 299.562C147.872 285.926 164.363 276.015 198.242 265.444C214.06 260.509 218.278 259.109 224.414 256.756C239.097 251.128 253.683 242.551 255.553 238.447C256.15 237.138 253.004 233.308 248.479 229.833C246.506 228.319 246.312 228.294 244.727 229.361Z"/>
</svg>
